<?xml version="1.0" encoding="utf-8"?>
<!-- Generator: Adobe Illustrator 16.0.0, SVG Export Plug-In . SVG Version: 6.00 Build 0)  -->
<!DOCTYPE svg PUBLIC "-//W3C//DTD SVG 1.1//EN" "http://www.w3.org/Graphics/SVG/1.1/DTD/svg11.dtd">
<svg version="1.1" id="Layer_1" xmlns="http://www.w3.org/2000/svg" xmlns:xlink="http://www.w3.org/1999/xlink" x="0px" y="0px"
	 width="28.468px" height="28.467px" viewBox="0 0 28.468 28.467" enable-background="new 0 0 28.468 28.467" xml:space="preserve">
<path fill-rule="evenodd" clip-rule="evenodd" fill="#008BD2" d="M13.233,5.914c3.786,0,7.055,2.276,8.512,5.529h1.411
	c-1.531-3.99-5.404-6.834-9.923-6.834c-5.852,0-10.625,4.772-10.625,10.625c0,5.852,4.773,10.624,10.625,10.624
	c5.853,0,10.625-4.772,10.625-10.624c0-0.871-0.106-1.717-0.306-2.527h-0.745h-0.604h-8.918v1.264h9.181
	c0.057,0.413,0.087,0.835,0.087,1.263c0,5.134-4.187,9.319-9.32,9.319c-5.133,0-9.32-4.186-9.32-9.319S8.1,5.914,13.233,5.914"/>
<path fill-rule="evenodd" clip-rule="evenodd" fill="#878786" d="M13.233,8.522c2.292,0,4.32,1.159,5.532,2.92h1.526
	c-1.356-2.512-4.013-4.225-7.059-4.225c-4.415,0-8.015,3.6-8.015,8.016c0,0.431,0.035,0.852,0.101,1.264h0.334h0.99h13.179
	c-0.594,3.096-3.325,5.447-6.59,5.447c-2.802,0-5.212-1.733-6.214-4.184H5.63c1.063,3.183,4.072,5.487,7.604,5.487
	c4.415,0,8.016-3.6,8.016-8.015h-0.436h-0.869H6.523l0,0C6.523,11.537,9.537,8.522,13.233,8.522"/>
<path fill-rule="evenodd" clip-rule="evenodd" fill="#878786" d="M13.233,3.304c5.247,0,9.72,3.416,11.31,8.139h1.368
	C24.275,5.991,19.207,2,13.233,2C5.944,2,0,7.944,0,15.234c0,7.289,5.944,13.233,13.233,13.233c7.29,0,13.234-5.944,13.234-13.233
	c0-0.047-0.001-0.095-0.002-0.141h-1.305c0,0.046,0.002,0.094,0.002,0.141c0,6.57-5.358,11.929-11.93,11.929
	c-6.57,0-11.929-5.358-11.929-11.929C1.305,8.663,6.663,3.304,13.233,3.304"/>
</svg>
